<svg width="50" height="50" viewBox="0 0 100 100" fill="none" xmlns="http://www.w3.org/2000/svg">
<path d="M0.751923 3.00752C0.751923 1.76176 1.76181 0.751877 3.00756 0.751877H96.9925C98.2383 0.751877 99.2482 1.76176 99.2482 3.00752V96.9925C99.2482 98.2382 98.2383 99.2481 96.9925 99.2481H3.00756C1.76181 99.2481 0.751923 98.2382 0.751923 96.9925V3.00752Z" fill="white"/>
<path fill-rule="evenodd" clip-rule="evenodd" d="M3.00752 0H96.9925C98.6535 0 100 1.34651 100 3.00752V96.9925C100 98.6535 98.6535 100 96.9925 100H3.00752C1.34651 100 0 98.6535 0 96.9925V3.00752C0 1.34651 1.34651 0 3.00752 0ZM3.00752 0.75188C1.76176 0.75188 0.75188 1.76176 0.75188 3.00752V96.9925C0.75188 98.2382 1.76176 99.2481 3.00752 99.2481H96.9925C98.2382 99.2481 99.2481 98.2382 99.2481 96.9925V3.00752C99.2481 1.76176 98.2382 0.75188 96.9925 0.75188H3.00752Z" fill="black" fill-opacity="0.5"/>
<path d="M55.5839 24.5039C56.7831 24.5039 57.7597 24.8465 58.5135 25.5318C59.3017 26.1829 59.6443 27.3822 59.5415 29.1297C59.5072 29.7122 59.3702 30.8087 59.1303 32.4192C58.8905 33.9954 58.5992 35.8628 58.2566 38.0215C57.9139 40.1803 57.5199 42.5103 57.0744 45.0117C56.6632 47.4788 56.2692 49.8945 55.8922 52.2588H56.9716C57.3143 52.2588 57.6912 52.2417 58.1024 52.2074C58.5135 52.1731 58.9419 52.1217 59.3873 52.0532C59.216 52.4644 59.0275 52.8584 58.8219 53.2354C58.6163 53.578 58.4108 53.8864 58.2052 54.1605C57.9653 54.4689 57.7254 54.743 57.4856 54.9829C57.1772 55.3598 56.8174 55.7025 56.4062 56.0109C55.995 56.285 55.601 56.5077 55.2241 56.679C54.9842 58.358 54.7786 59.8657 54.6073 61.2021C54.4702 62.5041 54.3846 63.5835 54.3503 64.4401C54.2818 65.7422 54.316 66.9586 54.4531 68.0894C54.5559 69.0831 54.7615 70.0939 55.0699 71.1219C55.3783 72.1498 55.8751 72.9722 56.5604 73.589L50.5983 75.5421C50.1871 74.9596 49.8787 74.1715 49.6731 73.1778C49.5018 72.2184 49.3818 71.2589 49.3133 70.2995C49.2105 69.1687 49.1934 68.0037 49.2619 66.8044C49.3304 65.6052 49.5189 64.0461 49.8273 62.1272C50.1357 60.1741 50.4783 58.0496 50.8552 55.7539C50.1699 55.5483 49.4161 55.3769 48.5937 55.2399C47.8056 55.1028 46.9147 55.0343 45.921 55.0343C45.0301 55.0343 44.0878 55.0686 43.0941 55.1371C42.1347 55.2056 41.1753 55.2913 40.2159 55.3941C39.8047 56.9018 39.3935 58.4951 38.9823 60.1741C38.5368 61.9902 38.1257 63.5321 37.7487 64.7999C37.4061 66.102 37.0634 67.1814 36.7208 68.038C36.4124 68.8946 36.0869 69.5799 35.7442 70.0939C35.4358 70.6079 35.0932 70.9848 34.7163 71.2247C34.3051 71.4303 33.7911 71.6187 33.1743 71.79C32.5918 71.9614 31.8551 72.1327 30.9642 72.304C30.0733 72.4754 28.9254 72.6124 27.5205 72.7152C28.0345 72.0984 28.48 71.5331 28.8569 71.0191C29.2338 70.5051 29.6107 69.8712 29.9876 69.1174C30.3646 68.3635 30.7929 67.387 31.2726 66.1877C31.718 65.0226 32.3006 63.4807 33.0201 61.5618C33.3285 60.7737 33.6369 59.9171 33.9453 58.9919C34.2879 58.0325 34.6477 57.0559 35.0247 56.0623C33.7911 56.2336 32.746 56.3878 31.8894 56.5248C31.0327 56.6619 30.5188 56.7647 30.3474 56.8332C30.0733 56.8675 29.8506 56.8675 29.6793 56.8332C29.2338 56.7647 28.9939 56.542 28.9597 56.165C28.9939 55.6853 29.1653 55.3598 29.4737 55.1885C29.7478 55.0172 30.1761 54.8116 30.7586 54.5717C31.0327 54.4346 31.6666 54.1948 32.6603 53.8521C33.6198 53.4752 34.8019 53.0812 36.2068 52.67C36.7208 51.2308 37.2176 49.8088 37.6973 48.4039C38.2113 46.9648 38.7082 45.5942 39.1879 44.2921C39.6676 42.99 40.1302 41.7736 40.5756 40.6428C41.0211 39.4778 41.4323 38.4841 41.8092 37.6618C42.3917 36.3939 43.1284 35.0062 44.0193 33.4985C44.9445 31.9566 45.9896 30.5174 47.1546 29.1811C48.3539 27.8447 49.656 26.7311 51.0608 25.8402C52.5 24.9493 54.0077 24.5039 55.5839 24.5039ZM55.0185 35.1947C55.3954 33.6527 55.6524 32.3849 55.7895 31.3912C55.9265 30.3975 55.9779 29.6265 55.9436 29.0783C55.9094 28.4958 55.7895 28.1017 55.5839 27.8961C55.4125 27.6563 55.1898 27.5363 54.9157 27.5363C54.4702 27.5363 53.922 27.7077 53.2709 28.0503C52.6199 28.393 51.9346 28.8898 51.215 29.5409C50.4955 30.1576 49.7759 30.9457 49.0563 31.9052C48.371 32.8303 47.7542 33.8926 47.206 35.0919C46.4179 36.8737 45.527 39.0666 44.5333 41.6708C43.5396 44.2407 42.4602 47.5302 41.2952 51.5392C41.9805 51.4364 42.6487 51.3508 43.2997 51.2822C43.985 51.2137 44.6532 51.1794 45.3043 51.1794C46.4693 51.1794 47.5829 51.2308 48.6451 51.3336C49.7074 51.4022 50.6839 51.4878 51.5748 51.5906C51.8832 49.9459 52.1916 48.3354 52.5 46.7592C52.8426 45.1487 53.1682 43.6239 53.4765 42.1848C53.7849 40.7456 54.0591 39.4264 54.2989 38.2271C54.573 37.0278 54.8129 36.017 55.0185 35.1947Z" fill="#4D4D4D"/>
<path d="M70.3509 50.7213C70.4488 51.2304 70.5663 51.6905 70.7033 52.1017C70.8404 52.5129 70.9285 52.9632 70.9677 53.4527C70.9677 53.5702 70.9579 53.6877 70.9383 53.8051C70.9383 53.9226 70.9481 54.0401 70.9677 54.1576V54.51C70.9677 54.6667 70.9481 54.8135 70.9089 54.9506C70.8894 55.0877 70.8796 55.2345 70.8796 55.3911C70.86 55.7436 70.8012 56.0862 70.7033 56.4191C70.6838 56.6345 70.6642 56.7422 70.6446 56.7422C70.625 56.7226 70.6152 56.7324 70.6152 56.7715C70.5761 56.9869 70.5467 57.1925 70.5271 57.3883C70.5075 57.5841 70.4782 57.7897 70.439 58.0051C70.7915 58.0443 71.1929 58.0932 71.6432 58.152C72.1131 58.1911 72.5537 58.1911 72.9649 58.152C73.0628 58.1324 73.1509 58.103 73.2292 58.0638C73.3271 58.0247 73.425 57.9855 73.5229 57.9464C73.8558 57.9072 74.1201 57.8289 74.3159 57.7114C74.5117 57.5939 74.7467 57.496 75.0208 57.4177C74.9425 57.6331 74.8446 57.7603 74.7271 57.7995C74.6683 57.9953 74.6096 58.1324 74.5509 58.2107C74.5117 58.2694 74.4627 58.3184 74.404 58.3575C74.3061 58.4359 74.218 58.5044 74.1397 58.5631C74.0614 58.6023 73.9732 58.661 73.8753 58.7394C73.5621 58.9156 73.3075 59.0135 73.1117 59.0331C72.9355 59.0331 72.7691 59.0624 72.6124 59.1212C72.4754 59.1016 72.3089 59.082 72.1131 59.0624C71.9369 59.0429 71.7803 59.0429 71.6432 59.0624C71.5453 59.0037 71.4376 58.9743 71.3201 58.9743C71.2026 58.9743 71.0852 58.9939 70.9677 59.0331C70.7327 59.1114 70.5761 59.1701 70.4978 59.2093C70.4194 59.2289 70.3411 59.2582 70.2628 59.2974C70.2236 59.4149 70.1943 59.503 70.1747 59.5617C70.1747 59.6205 70.1649 59.6694 70.1453 59.7086C70.1257 59.924 70.1062 60.1393 70.0866 60.3547C70.0866 60.5505 70.0572 60.7561 69.9985 60.9715C69.9201 61.1477 69.881 61.2652 69.881 61.3239C69.881 61.3631 69.8614 61.4218 69.8222 61.5002C69.7635 61.5981 69.7145 61.7155 69.6754 61.8526C69.6362 61.9897 69.5971 62.1267 69.5579 62.2638C69.46 62.3617 69.4013 62.4792 69.3817 62.6162C69.3621 62.7533 69.3425 62.9002 69.3229 63.0568C69.3034 63.2134 69.2544 63.3701 69.1761 63.5267C69.0978 63.6638 69.0195 63.8008 68.9411 63.9379C68.902 64.0358 68.8628 64.1337 68.8236 64.2316C68.7845 64.3099 68.7355 64.398 68.6768 64.4959C68.4418 64.7896 68.2167 65.1029 68.0013 65.4358C67.9034 65.6512 67.7957 65.847 67.6782 66.0232C67.5803 66.1798 67.4824 66.3561 67.3845 66.5519C67.2279 66.826 67.0321 67.0707 66.7971 67.2861C66.5621 67.4819 66.3272 67.6875 66.0922 67.9029C65.9747 68.0008 65.8572 68.1085 65.7398 68.226C65.6223 68.3434 65.5146 68.4511 65.4167 68.549C65.3188 68.6469 65.2111 68.7546 65.0936 68.8721C64.9957 68.97 64.8978 69.0679 64.7999 69.1658C64.6629 69.2637 64.516 69.3714 64.3594 69.4889C64.2223 69.5868 64.0754 69.6847 63.9188 69.7826C63.6055 69.9588 63.2922 70.1252 62.979 70.2819C62.6853 70.4385 62.372 70.6148 62.0391 70.8106C61.8825 70.9085 61.7356 70.9966 61.5986 71.0749C61.4615 71.1728 61.3146 71.2511 61.158 71.3098C61.0405 71.349 60.9132 71.3686 60.7762 71.3686C60.6587 71.3882 60.5412 71.4077 60.4237 71.4273C60.2671 71.4665 60.1202 71.4959 59.9832 71.5154C59.8461 71.5546 59.6895 71.5742 59.5133 71.5742C59.2979 71.5546 59.0531 71.5057 58.779 71.4273C58.5245 71.3686 58.3287 71.2903 58.1916 71.1924C57.9371 70.9574 57.7804 70.791 57.7217 70.6931C57.6825 70.5952 57.614 70.4973 57.5161 70.3994C57.4965 70.321 57.4671 70.2623 57.428 70.2231C57.4084 70.2036 57.3986 70.1546 57.3986 70.0763C57.2615 69.8805 57.1538 69.6847 57.0755 69.4889C56.8993 69.1169 56.772 68.7938 56.6937 68.5197C56.635 68.226 56.6252 67.9225 56.6643 67.6092C56.6252 67.2959 56.6056 66.9435 56.6056 66.5519C56.6056 66.1407 56.6056 65.7491 56.6056 65.377C56.6056 65.24 56.5958 65.1127 56.5762 64.9952C56.5762 64.8582 56.5958 64.7407 56.635 64.6428C56.6154 64.4861 56.5958 64.3393 56.5762 64.2022C56.5762 64.0456 56.5958 63.9085 56.635 63.7911C56.6546 63.5952 56.6643 63.4484 56.6643 63.3505C56.6839 63.2526 56.7133 63.1547 56.7525 63.0568C56.8504 62.9589 56.8895 62.861 56.8699 62.7631C56.8699 62.6652 56.8895 62.5673 56.9287 62.4694C57.007 61.9407 57.1343 61.4708 57.3105 61.0596C57.3692 60.903 57.428 60.7561 57.4867 60.6191C57.5455 60.4624 57.5944 60.3058 57.6336 60.1491C57.751 59.8163 57.8783 59.5128 58.0154 59.2387C58.172 58.9645 58.3189 58.6708 58.4559 58.3575C58.7301 57.7897 59.014 57.2708 59.3077 56.8009C59.621 56.3114 59.9342 55.8121 60.2475 55.303C60.3454 55.2443 60.414 55.166 60.4531 55.0681C60.4923 54.9506 60.551 54.8625 60.6293 54.8037C60.786 54.4709 60.972 54.187 61.1874 53.952C61.4028 53.717 61.6181 53.4821 61.8335 53.2471C61.9314 53.1688 62.0195 53.0905 62.0978 53.0121C62.1762 52.9142 62.2643 52.8163 62.3622 52.7184C62.4209 52.6597 62.4797 52.6108 62.5384 52.5716C62.6167 52.5129 62.6755 52.4443 62.7146 52.366C62.7929 52.3268 62.8615 52.2779 62.9202 52.2192C62.9985 52.1604 63.0671 52.1017 63.1258 52.0429C63.2041 51.9842 63.2825 51.9254 63.3608 51.8667C63.4391 51.808 63.5174 51.7492 63.5957 51.6905C63.7524 51.573 63.8894 51.4555 64.0069 51.338C64.144 51.201 64.2908 51.0835 64.4475 50.9856C64.6041 50.966 64.702 50.9562 64.7412 50.9562C64.7803 50.9562 64.7999 50.9269 64.7999 50.8681C65.0349 50.6723 65.1817 50.5353 65.2405 50.4569C65.3188 50.359 65.3873 50.2611 65.4461 50.1632C65.6027 50.0653 65.7398 49.9576 65.8572 49.8402C65.9747 49.7031 66.1118 49.5856 66.2684 49.4877C66.3859 49.3507 66.4642 49.2625 66.5034 49.2234C66.5621 49.1842 66.6209 49.1451 66.6796 49.1059C66.7188 49.0472 66.7579 49.008 66.7971 48.9884C66.8558 48.9493 66.895 48.9101 66.9146 48.8709C67.0125 48.8318 67.1006 48.7926 67.1789 48.7535C67.2572 48.6947 67.3551 48.6458 67.4726 48.6066C67.6097 48.6262 67.7174 48.6262 67.7957 48.6066C67.8936 48.587 67.9817 48.587 68.06 48.6066C68.1775 48.6262 68.2656 48.6751 68.3244 48.7535C68.4027 48.8122 68.4908 48.8807 68.5887 48.959C68.8236 48.9982 68.9999 49.1255 69.1174 49.3409C69.2544 49.5367 69.4013 49.6835 69.5579 49.7814C69.6558 49.9381 69.7635 50.0947 69.881 50.2513C70.018 50.3884 70.1355 50.545 70.2334 50.7213H70.3509ZM68.06 56.331C68.1579 56.4681 68.2754 56.5953 68.4125 56.7128C68.5495 56.8107 68.6866 56.9086 68.8236 57.0065C68.8236 56.4974 68.8432 55.9492 68.8824 55.3618C68.9411 54.7548 68.9509 54.1968 68.9118 53.6877C68.853 53.4723 68.7845 53.2667 68.7062 53.0709C68.6474 52.8751 68.5985 52.6597 68.5593 52.4247C68.481 52.3464 68.4223 52.2681 68.3831 52.1898C68.3635 52.1115 68.3341 52.0331 68.295 51.9548C68.1971 51.8373 68.1481 51.7688 68.1481 51.7492C68.1481 51.7101 68.1286 51.6709 68.0894 51.6317C68.0502 51.5926 68.0013 51.5534 67.9425 51.5143C67.9034 51.4751 67.8642 51.4262 67.8251 51.3674C67.5901 51.3478 67.3943 51.3968 67.2377 51.5143C67.1006 51.6122 66.9635 51.7101 66.8265 51.808C66.7873 52.0821 66.7775 52.3366 66.7971 52.5716C66.8167 52.8066 66.846 53.0317 66.8852 53.2471C66.9439 53.6191 67.0027 53.9912 67.0614 54.3632C67.1202 54.7352 67.2181 55.0583 67.3551 55.3324C67.3747 55.4695 67.453 55.6359 67.5901 55.8317C67.7272 56.0079 67.8838 56.1744 68.06 56.331ZM64.1244 53.7758C64.0265 53.8737 63.9286 53.9618 63.8307 54.0401C63.7328 54.1184 63.6447 54.2163 63.5664 54.3338C63.4489 54.4317 63.351 54.5296 63.2727 54.6275C63.1943 54.7254 63.1062 54.8233 63.0083 54.9212C62.9104 55.0191 62.8223 55.117 62.744 55.2149C62.6657 55.2932 62.5874 55.3911 62.509 55.5086C62.4503 55.5478 62.4013 55.5967 62.3622 55.6555C62.323 55.7142 62.2741 55.773 62.2153 55.8317C62.0195 56.0862 61.8825 56.2625 61.8041 56.3604C61.7258 56.4583 61.6671 56.5562 61.6279 56.6541C61.5104 56.7324 61.4125 56.8401 61.3342 56.9771C61.2755 57.0946 61.2167 57.2219 61.158 57.359C61.0405 57.5156 60.9328 57.682 60.8349 57.8582C60.737 58.0345 60.6489 58.2107 60.5706 58.3869C60.414 58.661 60.3161 58.847 60.2769 58.945C60.2573 59.0429 60.2279 59.1408 60.1888 59.2387C60.1105 59.3561 60.0419 59.5128 59.9832 59.7086C59.6503 60.4135 59.3566 61.2163 59.1021 62.1169C59.0629 62.2932 59.0042 62.4596 58.9259 62.6162C58.8671 62.7729 58.828 62.9295 58.8084 63.0862C58.7888 63.1645 58.779 63.2428 58.779 63.3211C58.7986 63.3994 58.8084 63.4778 58.8084 63.5561C58.7888 63.7519 58.7692 63.9477 58.7496 64.1435C58.7301 64.3197 58.7203 64.5155 58.7203 64.7309C58.7203 65.1225 58.7203 65.4847 58.7203 65.8176C58.7203 66.1505 58.7398 66.4931 58.779 66.8456C58.779 67.1001 58.7986 67.3057 58.8377 67.4623C58.8769 67.5407 58.9454 67.619 59.0433 67.6973C59.1412 67.7756 59.2294 67.8442 59.3077 67.9029C59.4643 68.0595 59.621 68.226 59.7776 68.4022C59.9342 68.5588 60.1496 68.5882 60.4237 68.4903C60.5216 68.549 60.6293 68.549 60.7468 68.4903C60.8643 68.4316 60.9818 68.4218 61.0993 68.4609C61.1972 68.4218 61.2951 68.4022 61.393 68.4022C61.4909 68.3826 61.5888 68.3532 61.6867 68.3141C61.8433 68.2749 61.9902 68.2358 62.1272 68.1966C62.2839 68.1379 62.4307 68.0889 62.5678 68.0497C62.7244 67.991 62.8811 67.9421 63.0377 67.9029C63.1943 67.8442 63.3412 67.7756 63.4783 67.6973C63.8699 67.3644 64.1538 67.1001 64.33 66.9043C64.4671 66.7672 64.6041 66.6498 64.7412 66.5519C64.8782 66.4344 65.0055 66.3169 65.123 66.1994C65.2209 66.1015 65.3188 66.0036 65.4167 65.9057C65.5146 65.7882 65.6027 65.6512 65.681 65.4945C65.7398 65.4358 65.7887 65.377 65.8279 65.3183C65.8866 65.24 65.9356 65.1617 65.9747 65.0833C66.0726 64.9659 66.1412 64.8386 66.1803 64.7015C66.2391 64.5645 66.3174 64.4274 66.4153 64.2903C66.5328 63.9575 66.6698 63.6442 66.8265 63.3505C66.9831 63.0568 67.1104 62.7533 67.2083 62.44C67.3845 62.068 67.5314 61.7449 67.6488 61.4708C67.7859 61.1771 67.8838 60.8834 67.9425 60.5897C68.0013 60.5309 68.0307 60.4624 68.0307 60.3841C68.0502 60.2862 68.0796 60.2079 68.1188 60.1491C68.2167 59.875 68.295 59.6107 68.3537 59.3561C68.432 59.1016 68.5104 58.8177 68.5887 58.5044C68.5104 58.4652 68.4418 58.4554 68.3831 58.475C68.3244 58.475 68.2656 58.4554 68.2069 58.4163C68.0502 58.3575 67.9034 58.2596 67.7663 58.1226C67.6488 57.9659 67.5118 57.8778 67.3551 57.8582C67.2768 57.7995 67.2083 57.7506 67.1495 57.7114C67.1104 57.6722 67.0516 57.6331 66.9733 57.5939C66.66 57.2611 66.3565 56.9184 66.0628 56.566C65.7887 56.1939 65.5635 55.7827 65.3873 55.3324C65.2111 54.9408 65.074 54.5786 64.9761 54.2457C64.8782 53.8933 64.7901 53.5212 64.7118 53.1296C64.5943 53.2471 64.4866 53.3548 64.3887 53.4527C64.3104 53.5506 64.2223 53.6583 64.1244 53.7758Z" fill="#4D4D4D"/>
</svg>
